<svg width="93" height="80" viewBox="0 0 93 80" fill="none" xmlns="http://www.w3.org/2000/svg">
<path d="M24.2 64.9531L25.5232 65.6595L26.7013 63.4531H24.2V64.9531ZM19.6646 73.4477L20.9485 74.2235L20.9691 74.1894L20.9878 74.1542L19.6646 73.4477ZM23.5172 77.3517L24.0211 78.7645L24.0314 78.7608L24.0418 78.7569L23.5172 77.3517ZM56.7304 64.9531V63.4531H56.4596L56.2058 63.5478L56.7304 64.9531ZM3.5 10.2833C3.5 6.5469 6.55317 3.5 10.3417 3.5V0.5C4.91621 0.5 0.5 4.87022 0.5 10.2833H3.5ZM3.5 56.6698V10.2833H0.5V56.6698H3.5ZM10.3417 63.4531C6.55317 63.4531 3.5 60.4062 3.5 56.6698H0.5C0.5 62.0829 4.91621 66.4531 10.3417 66.4531V63.4531ZM24.2 63.4531H10.3417V66.4531H24.2V63.4531ZM20.9878 74.1542L25.5232 65.6595L22.8768 64.2466L18.3414 72.7413L20.9878 74.1542ZM23.0133 75.9388C21.9759 76.3088 21.1777 76.4735 20.6171 76.4971C20.0214 76.5221 19.9249 76.3826 19.9914 76.4435C20.1257 76.5664 20.0072 76.6383 20.0658 76.256C20.1283 75.8484 20.3695 75.1816 20.9485 74.2235L18.3808 72.672C17.7085 73.7847 17.2477 74.8403 17.1004 75.8017C16.9492 76.7884 17.1134 77.876 17.9656 78.6562C18.75 79.3743 19.8069 79.5338 20.7431 79.4944C21.7144 79.4536 22.8265 79.1905 24.0211 78.7645L23.0133 75.9388ZM56.2058 63.5478L22.9926 75.9464L24.0418 78.7569L57.255 66.3583L56.2058 63.5478ZM82.9142 63.4531H56.7304V66.4531H82.9142V63.4531ZM89.7559 56.6698C89.7559 60.4062 86.7027 63.4531 82.9142 63.4531V66.4531C88.3396 66.4531 92.7559 62.0829 92.7559 56.6698H89.7559ZM89.7559 10.2833V56.6698H92.7559V10.2833H89.7559ZM82.9142 3.5C86.7027 3.5 89.7559 6.5469 89.7559 10.2833H92.7559C92.7559 4.87022 88.3396 0.5 82.9142 0.5V3.5ZM10.3417 3.5H82.9142V0.5H10.3417V3.5Z" fill="white"/>
<path d="M62 50C59.2647 46 54.0533 42 46.5 42C38.9467 42 33.7353 46 31 50" stroke="white" stroke-width="3" stroke-linecap="round"/>
<line x1="28.1213" y1="20" x2="37" y2="28.8787" stroke="white" stroke-width="3" stroke-linecap="round"/>
<line x1="37" y1="20.1213" x2="28.1213" y2="29" stroke="white" stroke-width="3" stroke-linecap="round"/>
<line x1="59.1213" y1="20" x2="68" y2="28.8787" stroke="white" stroke-width="3" stroke-linecap="round"/>
<line x1="68" y1="20.1213" x2="59.1213" y2="29" stroke="white" stroke-width="3" stroke-linecap="round"/>
</svg>
