<svg width="23" height="20" viewBox="0 0 23 20" fill="none" xmlns="http://www.w3.org/2000/svg">
<path d="M19.835 11.6513L19.835 11.6513C19.8237 11.6671 19.8153 11.69 19.8187 11.7238C19.8223 11.7596 19.8387 11.7962 19.8671 11.8246C19.8671 11.8247 19.8671 11.8247 19.8671 11.8247L19.8971 11.8546L19.835 11.6513ZM19.835 11.6513L19.839 11.6456M19.835 11.6513L19.839 11.6456M19.839 11.6456C22.0641 8.46998 22.0888 4.33563 19.8622 1.23843L19.839 11.6456ZM16.8143 8.33753L16.813 8.34003C16.7855 8.39289 16.7395 8.42728 16.6685 8.4367C16.5931 8.4467 16.5156 8.42315 16.4571 8.36466L16.4271 8.33466C16.3982 8.30572 16.3811 8.27241 16.3738 8.23102C16.3661 8.18678 16.3691 8.12589 16.3971 8.05655C16.8143 7.02615 16.8143 5.87738 16.3971 4.84698C16.3696 4.77902 16.3644 4.71171 16.3732 4.65779C16.3813 4.60793 16.3995 4.57798 16.4149 4.56108L16.4171 4.55887C16.4171 4.55886 16.4171 4.55886 16.4171 4.55885C16.5465 4.42949 16.7322 4.48523 16.7904 4.59857L16.7915 4.60071C17.4261 5.82918 17.4186 7.18451 16.8143 8.33753ZM6 6.45177C6 4.79491 7.34315 3.45177 9 3.45177C10.6569 3.45177 12 4.79491 12 6.45177C12 8.10862 10.6569 9.45177 9 9.45177C7.34315 9.45177 6 8.10862 6 6.45177Z" stroke="#6AA2B8" stroke-width="2" stroke-linejoin="round"/>
<path d="M1 17C1 14.34 6.33 13 9 13C11.67 13 17 14.34 17 17V18C17 18.55 16.55 19 16 19H2C1.45 19 1 18.55 1 18V17Z" stroke="#6AA2B8" stroke-width="2" stroke-linejoin="round"/>
</svg>
