<svg width="15" height="13" viewBox="0 0 15 13" fill="none" xmlns="http://www.w3.org/2000/svg">
<path d="M2 7V9.23385C2 9.81418 2.28571 10.3548 2.74286 10.633L6.31429 12.8032C6.74286 13.0656 7.25714 13.0656 7.68571 12.8032L11.2571 10.633C11.7143 10.3548 12 9.81418 12 9.23385V7L7.68571 9.62339C7.25714 9.88572 6.74286 9.88572 6.31429 9.62339L2 7Z" fill="#6AA2B8"/>
<path d="M6.41935 0.174927L0.371278 3.5277C-0.123759 3.80466 -0.123759 4.53353 0.371278 4.8105L6.41935 8.16327C6.84981 8.40379 7.36638 8.40379 7.79684 8.16327L13.5651 4.96356V9.27114C13.5651 9.67201 13.888 10 14.2826 10C14.6771 10 15 9.67201 15 9.27114V4.59912C15 4.32945 14.8565 4.08892 14.6269 3.95773L7.79684 0.174927C7.36638 -0.058309 6.84981 -0.058309 6.41935 0.174927Z" fill="#6AA2B8"/>
</svg>
