<svg width="79" height="36" viewBox="0 0 79 36" fill="none" xmlns="http://www.w3.org/2000/svg">
<path fill-rule="evenodd" clip-rule="evenodd" d="M0 17.7064C0 17.0505 0 16.7226 0.00905206 16.4453C0.301357 7.49168 7.49168 0.301357 16.4453 0.00905206C16.7226 0 17.0505 0 17.7064 0H55.2936C55.9495 0 56.2774 0 56.5547 0.00905206C65.5083 0.301357 72.6986 7.49168 72.9909 16.4453C73 16.7226 73 17.0505 73 17.7064V17.7064C73 18.3623 73 18.6902 72.9909 18.9675C72.6986 27.9211 65.5083 35.1114 56.5547 35.4037C56.2774 35.4128 55.9495 35.4128 55.2936 35.4128H17.7064C17.0505 35.4128 16.7226 35.4128 16.4453 35.4037C7.49168 35.1114 0.301357 27.9211 0.00905206 18.9675C0 18.6902 0 18.3623 0 17.7064V17.7064Z" fill="white"/>
<path fill-rule="evenodd" clip-rule="evenodd" d="M78.97 35.4153C75.5699 34.086 72.995 30.794 72.9702 26.9368L72.9702 17.46L72.97 18.4614C72.97 24.0194 66.1438 21.408 62 24.5C60.1 32.5 74.5 35.7 78.97 35.4153Z" fill="white"/>
</svg>
