<svg width="20" height="17" viewBox="0 0 20 17" fill="none" xmlns="http://www.w3.org/2000/svg">
<path d="M6.29108 17C13.8654 17 17.9969 10.4741 17.9969 4.79655C17.9969 4.6334 17.9969 4.43762 17.9656 4.24184C18.7793 3.62188 19.4679 2.8714 20 2.02303C19.2488 2.38196 18.4664 2.61036 17.6213 2.70825C18.4664 2.18618 19.1236 1.33781 19.4366 0.326296C18.6228 0.815739 17.7778 1.17466 16.8075 1.37044C16.0563 0.522073 14.9922 0 13.8028 0C11.518 0 9.67136 1.92514 9.67136 4.3071C9.67136 4.6334 9.70266 4.95969 9.76526 5.28599C6.44757 5.09021 3.41158 3.39347 1.37715 0.783109C1.03286 1.4357 0.813771 2.15355 0.813771 2.93666C0.813771 4.43762 1.53365 5.7428 2.66041 6.49328C1.97183 6.46065 1.34585 6.26487 0.813771 5.97121C0.813771 6.00384 0.813771 6.00384 0.813771 6.00384C0.813771 8.0595 2.22222 9.8215 4.10016 10.2131C3.75587 10.3109 3.38028 10.3762 3.03599 10.3762C2.7543 10.3762 2.50391 10.3436 2.25352 10.2783C2.7856 11.975 4.28795 13.215 6.10329 13.2476C4.69484 14.3896 2.9108 15.0749 1.00156 15.0749C0.625978 15.1075 0.312989 15.0749 0 15.0422C1.78404 16.2821 3.97496 17 6.29108 17Z" fill="#6AA2B8"/>
</svg>
