<svg width="21" height="21" viewBox="0 0 21 21" fill="none" xmlns="http://www.w3.org/2000/svg">
<path d="M16.5 15.1875L17.1264 14.408C16.9488 14.2653 16.7278 14.1875 16.5 14.1875V15.1875ZM20 18L19.3736 18.7795L21 20.0864V18H20ZM18.25 2H17.375V4H18.25V2ZM5 12.1406V13.1562H7V12.1406H5ZM5 13.1562C5 14.6807 6.10054 16.1875 7.75 16.1875V14.1875C7.47446 14.1875 7 13.8662 7 13.1562H5ZM7.75 16.1875H16.5V14.1875H7.75V16.1875ZM15.8736 15.967L19.3736 18.7795L20.6264 17.2205L17.1264 14.408L15.8736 15.967ZM21 18V5.03125H19V18H21ZM21 5.03125C21 3.50684 19.8995 2 18.25 2V4C18.5255 4 19 4.32129 19 5.03125H21Z" fill="#6AA2B8"/>
<path d="M4.8 12.2C4.53478 12.2 4.28043 12.3054 4.09289 12.4929L1 15.5858V2.4C1 1.63228 1.63228 1 2.4 1H15.6C16.3677 1 17 1.63228 17 2.4V10.8C17 11.5677 16.3677 12.2 15.6 12.2H4.8Z" stroke="#6AA2B8" stroke-width="2" stroke-linejoin="round"/>
</svg>
