<svg width="22" height="21" viewBox="0 0 22 21" fill="none" xmlns="http://www.w3.org/2000/svg">
<path d="M13 4.5C13 6.43667 11.4367 8 9.5 8C7.56333 8 6 6.43667 6 4.5C6 2.56333 7.56333 1 9.5 1C11.4367 1 13 2.56333 13 4.5Z" stroke="#6AA2B8" stroke-width="2" stroke-linejoin="round"/>
<path fill-rule="evenodd" clip-rule="evenodd" d="M14.5305 11.8178C12.9893 11.3805 11.4183 11.1538 10.2308 11.1538C8.55507 11.1538 6.116 11.6051 4.07431 12.4626C3.05151 12.8922 2.06685 13.449 1.32234 14.1534C0.572889 14.8625 0 15.7903 0 16.9231V18.4615C0 19.0138 0.447715 19.4615 1 19.4615H12.9651C12.5529 18.8705 12.2562 18.1929 12.1077 17.4615H2V16.9231C2 16.5173 2.19634 16.0798 2.6969 15.6062C3.20238 15.1279 3.94849 14.6847 4.84877 14.3066C6.65323 13.5487 8.82955 13.1538 10.2308 13.1538C10.9534 13.1538 11.8822 13.2588 12.8598 13.4645C13.289 12.8008 13.8603 12.2376 14.5305 11.8178Z" fill="#6AA2B8"/>
<path d="M20.875 17.625H18.625V19.875C18.625 20.4937 18.1188 21 17.5 21C16.8812 21 16.375 20.4937 16.375 19.875V17.625H14.125C13.5062 17.625 13 17.1188 13 16.5C13 15.8812 13.5062 15.375 14.125 15.375H16.375V13.125C16.375 12.5062 16.8812 12 17.5 12C18.1188 12 18.625 12.5062 18.625 13.125V15.375H20.875C21.4937 15.375 22 15.8812 22 16.5C22 17.1188 21.4937 17.625 20.875 17.625Z" fill="#6AA2B8"/>
</svg>
