<svg width="50" height="48" viewBox="0 0 50 48" fill="none" xmlns="http://www.w3.org/2000/svg">
<path fill-rule="evenodd" clip-rule="evenodd" d="M25 48C38.4833 48 49.4138 37.2548 49.4138 24C49.4138 10.7452 38.4833 0 25 0C11.5166 0 0.586182 10.7452 0.586182 24C0.586182 37.2548 11.5166 48 25 48ZM25.3289 22.8H37.4986C37.4986 22.8 37.7453 23.669 37.8275 25.2C37.8275 32.4414 32.7294 37.2414 25.6578 37.2414C17.6405 37.2414 12.1724 30.6621 12.1724 24C12.1724 17.131 17.9283 10.7586 25.4522 10.7586C31.1671 10.7586 34.4562 14.3586 34.4562 14.3586L31.9893 16.9655C31.9893 16.9655 29.6047 14.3586 25.5755 14.3586C20.3541 14.3586 16.1193 18.4966 16.1193 24C16.1193 29.7103 20.5596 33.6414 25.5755 33.6414C29.4814 33.6414 33.5928 31.4483 34.045 26.4H25.3289V22.8Z" fill="white"/>
</svg>
