<svg width="22" height="16" viewBox="0 0 22 16" fill="none" xmlns="http://www.w3.org/2000/svg">
<path d="M10.416 2.24999C10.767 2.50584 11.243 2.50584 11.594 2.24999C12.7949 1.37471 14.6439 1 16.5075 1C17.8761 1 19.2693 1.20158 20.3833 1.67759C20.7872 1.85394 21 2.20012 21 2.5377V13.3806C21 13.9527 20.4273 14.4428 19.7629 14.2756L19.7569 14.2742C18.6868 14.0119 17.565 13.8994 16.4975 13.8994C14.8547 13.8994 13.0282 14.1493 11.5024 14.8823L11.5024 14.8823L11.4965 14.8852C11.1855 15.0371 10.8265 15.0403 10.4976 14.8823L10.4976 14.8823L10.4923 14.8798C8.97229 14.1605 7.1505 13.8994 5.5025 13.8994C4.43513 13.8994 3.31357 14.0118 2.24357 14.274C1.57014 14.4381 1 13.9384 1 13.3806V2.5377C1 2.20043 1.21244 1.85458 1.61557 1.67808C2.74122 1.20116 4.13529 1 5.5025 1C7.36611 1 9.21514 1.37471 10.416 2.24999Z" stroke="#6AA2B8" stroke-width="2" stroke-linejoin="round"/>
<line x1="11" y1="2" x2="11" y2="14" stroke="#6AA2B8" stroke-width="2" stroke-linejoin="round"/>
</svg>
