<svg width="27" height="23" viewBox="0 0 27 23" fill="none" xmlns="http://www.w3.org/2000/svg">
<path d="M3 12V16.0954C3 17.1593 3.54286 18.1504 4.41143 18.6605L11.1971 22.6393C12.0114 23.1202 12.9886 23.1202 13.8029 22.6393L20.5886 18.6605C21.4571 18.1504 22 17.1593 22 16.0954V12L13.8029 16.8095C12.9886 17.2905 12.0114 17.2905 11.1971 16.8095L3 12Z" fill="#C4C4C4"/>
<path d="M11.5548 0.297376L0.668301 5.99708C-0.222767 6.46793 -0.222767 7.707 0.668301 8.17784L11.5548 13.8776C12.3297 14.2864 13.2595 14.2864 14.0343 13.8776L24.4172 8.43805V15.7609C24.4172 16.4424 24.9983 17 25.7086 17C26.4189 17 27 16.4424 27 15.7609V7.81851C27 7.36006 26.7417 6.95117 26.3285 6.72813L14.0343 0.297376C13.2595 -0.0991254 12.3297 -0.0991254 11.5548 0.297376Z" fill="#C4C4C4"/>
</svg>
