<svg width="13" height="20" viewBox="0 0 13 20" fill="none" xmlns="http://www.w3.org/2000/svg">
<path fill-rule="evenodd" clip-rule="evenodd" d="M6.5 0.857117C2.90643 0.857117 0 3.76355 0 7.35712C0 12.2321 6.5 19.4285 6.5 19.4285C6.5 19.4285 13 12.2321 13 7.35712C13 3.76355 10.0936 0.857117 6.5 0.857117ZM1.85717 7.35715C1.85717 4.79429 3.93717 2.71429 6.50002 2.71429C9.06288 2.71429 11.1429 4.79429 11.1429 7.35715C11.1429 10.0314 8.46859 14.0336 6.50002 16.5314C4.56859 14.0522 1.85717 10.0036 1.85717 7.35715ZM4.17856 7.35713C4.17856 6.07504 5.2179 5.03571 6.49998 5.03571C7.32935 5.03571 8.09572 5.47817 8.5104 6.19642C8.92508 6.91467 8.92508 7.7996 8.5104 8.51785C8.09572 9.2361 7.32935 9.67856 6.49998 9.67856C5.2179 9.67856 4.17856 8.63922 4.17856 7.35713Z" fill="#6AA2B8"/>
</svg>
