<svg width="7" height="6" viewBox="0 0 7 6" fill="none" xmlns="http://www.w3.org/2000/svg">
<path d="M2.19892 5.76373C2.34394 5.76373 2.45861 5.69965 2.53955 5.57486L5.72663 0.556472C5.78733 0.458669 5.81094 0.384473 5.81094 0.3069C5.81094 0.121412 5.68953 0 5.50404 0C5.36913 0 5.29494 0.0438387 5.214 0.171999L2.18543 4.99815L0.613807 2.94088C0.529493 2.82284 0.445179 2.77563 0.323767 2.77563C0.131531 2.77563 0 2.90716 0 3.09265C0 3.17022 0.0337271 3.2579 0.0978036 3.33885L1.84817 5.56812C1.94934 5.69965 2.0539 5.76373 2.19892 5.76373Z" fill="white"/>
<path d="M6.91488 0.556472L3.72873 5.5947C3.6478 5.72286 3.57267 5.74686 3.43776 5.74686C3.25227 5.74686 3.13086 5.62545 3.13086 5.43996C3.13086 5.36239 3.15447 5.28819 3.21517 5.19039C4.39791 3.30566 6.40225 0.171999 6.40225 0.171999C6.48319 0.0438387 6.55738 0 6.69229 0C6.87778 0 6.99919 0.121412 6.99919 0.3069C6.99919 0.384473 6.97558 0.458668 6.91488 0.556472Z" fill="white"/>
</svg>
