<svg width="20" height="20" viewBox="0 0 20 20" fill="none" xmlns="http://www.w3.org/2000/svg">
<mask id="path-1-inside-1_4307_4713" fill="white">
<path d="M17.999 0H2.001C0.90045 0 0 0.9 0 2V20L3.992 16H17.999C19.0995 16 20 15.1 20 14V2C20 0.9 19.0995 0 17.999 0Z"/>
</mask>
<path d="M0 20H-2C-2 20.8093 -1.51228 21.5388 -0.764442 21.8481C-0.0166009 22.1575 0.843949 21.9856 1.41563 21.4128L0 20ZM3.992 16V14C3.46087 14 2.95155 14.2113 2.57637 14.5872L3.992 16ZM17.999 -2H2.001V2H17.999V-2ZM2.001 -2C-0.203176 -2 -2 -0.205513 -2 2H2C2 1.99927 2.00004 2.00016 1.99966 2.00199C1.99931 2.00369 1.99884 2.00503 1.99852 2.0058C1.99804 2.00693 1.99869 2.00503 2.00165 2.00207C2.00462 1.9991 2.00662 1.99835 2.00574 1.99872C2.00511 1.99899 2.00393 1.99941 2.0024 1.99972C2.00076 2.00006 2.00007 2 2.001 2V-2ZM-2 2V20H2V2H-2ZM1.41563 21.4128L5.40763 17.4128L2.57637 14.5872L-1.41563 18.5872L1.41563 21.4128ZM3.992 18H17.999V14H3.992V18ZM17.999 18C20.2032 18 22 16.2055 22 14H18C18 14.0007 18 13.9998 18.0003 13.998C18.0007 13.9963 18.0012 13.995 18.0015 13.9942C18.002 13.9931 18.0013 13.995 17.9983 13.9979C17.9954 14.0009 17.9934 14.0016 17.9943 14.0013C17.9949 14.001 17.9961 14.0006 17.9976 14.0003C17.9992 13.9999 17.9999 14 17.999 14V18ZM22 14V2H18V14H22ZM22 2C22 -0.205514 20.2032 -2 17.999 -2V2C17.9999 2 17.9992 2.00006 17.9976 1.99972C17.9961 1.99941 17.9949 1.99899 17.9943 1.99872C17.9934 1.99835 17.9954 1.9991 17.9983 2.00207C18.0013 2.00503 18.002 2.00693 18.0015 2.0058C18.0012 2.00504 18.0007 2.0037 18.0003 2.00199C18 2.00016 18 1.99927 18 2H22Z" fill="#6AA2B8" mask="url(#path-1-inside-1_4307_4713)"/>
<line x1="5" y1="6" x2="15" y2="6" stroke="#6AA2B8" stroke-width="2" stroke-linecap="round"/>
<line x1="5" y1="10" x2="13" y2="10" stroke="#6AA2B8" stroke-width="2" stroke-linecap="round"/>
</svg>
