<svg width="21" height="21" viewBox="0 0 21 21" fill="none" xmlns="http://www.w3.org/2000/svg">
<path d="M19.7338 3.45166H18.0623C17.7745 3.45166 17.5423 3.68464 17.5423 3.97354V10.4132L17.3845 10.2082C16.2702 8.73573 14.8866 8.01814 13.1687 8.01814C10.3087 8.01814 7.42082 10.2361 7.42082 14.4858V14.5324C7.42082 18.7261 10.383 21 13.1687 21C14.8959 21 16.2795 20.2358 17.3845 18.6701L17.5423 18.4465V20.2172C17.5423 20.5061 17.7745 20.739 18.0623 20.739H19.7338C20.0216 20.739 20.2538 20.5061 20.2538 20.2172V3.97354C20.2538 3.68464 20.0216 3.45166 19.7338 3.45166ZM10.1508 14.5324V14.4858C10.1508 12.0907 11.7109 10.3573 13.8559 10.3573C15.9823 10.3573 17.5888 12.128 17.5888 14.4858V14.5324C17.5888 16.8436 15.9545 18.6608 13.8559 18.6608C11.748 18.6515 10.1508 16.8808 10.1508 14.5324Z" fill="#6AA2B8"/>
<path d="M3.84576 11.5594C3.78076 10.8325 3.79933 9.95652 4.14291 8.75432C4.43077 7.78511 5.11792 6.71339 5.91649 5.95852C6.6965 5.22229 7.75508 4.64449 8.90651 4.38355C10.0022 4.13193 10.9215 4.15057 11.618 4.23444C11.7201 4.23444 11.7944 4.28104 11.8315 4.32764C11.9058 4.40219 11.9151 4.56994 11.878 4.61654C11.8408 4.65381 11.748 4.69109 11.6551 4.69109C10.1415 4.78428 8.51651 5.60439 6.9565 7.07684C5.52649 8.42815 4.50505 10.1429 4.31005 11.6247C4.30077 11.7179 4.26362 11.8017 4.21719 11.839C4.17077 11.8763 3.99434 11.867 3.92934 11.7924C3.89219 11.7365 3.85505 11.662 3.84576 11.5594Z" fill="#6AA2B8"/>
<path d="M0.0386354 9.82613C-0.0449366 8.86624 -0.0263651 7.692 0.437924 6.08908C0.818641 4.79369 1.72865 3.37715 2.79651 2.37066C3.83652 1.39213 5.23867 0.627945 6.78011 0.27381C8.23798 -0.0616867 9.4637 -0.0337287 10.383 0.0687841C10.513 0.0687841 10.6151 0.134019 10.6709 0.189936C10.7637 0.292448 10.7823 0.516112 10.7266 0.572028C10.6801 0.618625 10.5594 0.665222 10.4387 0.674541C8.42369 0.805012 6.26011 1.89537 4.18938 3.85244C2.27651 5.66039 0.920784 7.93431 0.660783 9.91001C0.642211 10.0312 0.595782 10.143 0.540067 10.1989C0.484353 10.2548 0.252208 10.2362 0.150065 10.1337C0.0943501 10.0778 0.0479212 9.97524 0.0386354 9.82613Z" fill="#6AA2B8"/>
</svg>
